# xmcd
#
# Track frame offsets: 
#        300
#        26703
#        56555
#        74962
#        78713
#        102947
#        121350
#        136042
#
# Disc length: 2114 seconds
#
# Revision: 0
# Processed by: cddbd v1.5PL3 Copyright (c) Steve Scherf et al.
# Submitted via: ExactAudioCopy v0.95a4
#
DISCID=75083e08
DTITLE=Buck Shamus - 00 BUCK
DYEAR=2004
DGENRE=Blues
TTITLE0=I'm Not Saying
TTITLE1=Total Emotion
TTITLE2=Come Undone
TTITLE3=Good Morning Sunshine
TTITLE4=Hangover
TTITLE5=Rooster Rugburn
TTITLE6=Down
TTITLE7=The Dance
EXTD=
EXTT0=
EXTT1=
EXTT2=
EXTT3=
EXTT4=
EXTT5=
EXTT6=
EXTT7=
PLAYORDER=
